# xmcd CD database file
#
# Track frame offsets:
#	150
#	13922
#	30397
#	46049
#	63319
#	77992
#	90187
#	103449
#	117281
#	133172
#	149215
#	168421
#	185904
#	197970
#
# Disc length: 2811 seconds
#
# Revision: 0
# Processed by: cddbd v1.5.2PL0 Copyright (c) Steve Scherf et al.
# Submitted via: CDex 1.51
#
DISCID=cd0af90e
DTITLE=Dianne Lindsay - Memories and Dreams
DYEAR=1900
DGENRE=Country
TTITLE0=Butterfly Memories
TTITLE1=Teardrops On The River
TTITLE2=I Need A Heart To Come Home To
TTITLE3=Blue Rose Is
TTITLE4=A Guiding Light
TTITLE5=Bushland Sweetheart
TTITLE6=Beautiful Dreams Beautiful Memories
TTITLE7=Till The End Of The World
TTITLE8=Old Brown Guitar Case
TTITLE9=Suvia Bay
TTITLE10=Local Mary Magdalene
TTITLE11=The Love Of Mother And Dad
TTITLE12=Hobos Meditation
TTITLE13=18 Years Of Age
EXTD=
EXTT0=
EXTT1=
EXTT2=
EXTT3=
EXTT4=
EXTT5=
EXTT6=
EXTT7=
EXTT8=
EXTT9=
EXTT10=
EXTT11=
EXTT12=
EXTT13=
PLAYORDER=
